<svg height="400" id="svg" version="1.1" viewBox="0, 0, 400,400" width="400"
    xmlns="http://www.w3.org/2000/svg">
    <g id="svgg">
        <path
            d="M0.000 200.000 L 0.000 400.000 200.000 400.000 L 400.000 400.000 400.000 200.000 L 400.000 0.000 200.000 0.000 L 0.000 0.000 0.000 200.000 M70.000 164.930 C 73.704 166.177,75.091 166.907,78.400 169.351 C 82.069 172.061,82.184 172.669,79.532 175.317 L 77.400 177.444 75.800 176.316 C 72.056 173.675,70.095 172.399,69.759 172.386 C 69.561 172.379,68.680 172.025,67.800 171.600 C 65.510 170.494,60.168 170.494,58.000 171.600 C 57.138 172.040,56.237 172.400,55.999 172.400 C 55.120 172.400,52.138 175.013,51.003 176.778 C 48.618 180.487,49.666 186.011,53.286 188.819 C 55.081 190.211,58.226 192.000,58.877 192.000 C 59.171 192.000,60.060 192.347,60.852 192.772 C 61.644 193.196,62.991 193.670,63.846 193.826 C 64.701 193.981,66.068 194.444,66.884 194.854 C 67.700 195.264,68.566 195.600,68.809 195.600 C 70.556 195.600,78.235 200.430,80.255 202.800 C 87.074 210.800,85.304 223.683,76.577 229.574 C 66.964 236.063,52.470 234.794,43.130 226.645 C 42.762 226.324,42.087 225.861,41.630 225.616 C 40.080 224.786,40.553 223.150,43.018 220.819 L 45.235 218.721 46.118 219.661 C 51.070 224.937,59.102 228.017,64.379 226.665 C 65.821 226.295,67.290 225.995,67.644 225.997 C 70.103 226.009,75.605 221.576,76.644 218.745 C 79.366 211.322,75.942 206.087,65.676 201.976 C 64.061 201.329,62.438 200.799,62.070 200.798 C 61.701 200.796,60.890 200.529,60.267 200.204 C 59.643 199.879,58.383 199.413,57.467 199.169 C 56.550 198.925,55.530 198.494,55.200 198.210 C 54.870 197.927,54.173 197.564,53.650 197.405 C 45.967 195.058,40.104 182.876,43.539 176.394 C 43.945 175.627,44.394 174.521,44.537 173.935 C 44.797 172.874,49.835 167.200,50.517 167.200 C 50.715 167.200,51.354 166.870,51.938 166.466 C 52.940 165.774,57.406 164.244,59.600 163.842 C 61.947 163.412,67.088 163.949,70.000 164.930 M149.613 165.607 C 150.004 165.816,150.792 166.823,151.362 167.844 C 155.031 174.408,145.416 179.378,141.591 172.896 C 138.863 168.272,144.693 162.974,149.613 165.607 M101.276 167.000 C 101.457 167.660,101.592 177.062,101.575 187.892 C 101.558 198.723,101.669 207.788,101.822 208.035 C 101.991 208.309,106.046 204.497,112.135 198.343 L 122.170 188.200 126.063 188.200 C 132.218 188.200,132.401 187.792,121.245 198.955 C 113.081 207.125,111.555 208.830,111.780 209.537 C 111.927 210.000,116.815 215.176,122.641 221.038 C 128.468 226.899,133.167 231.899,133.085 232.148 C 132.990 232.434,131.441 232.642,128.857 232.714 L 124.780 232.828 113.410 221.420 C 107.156 215.146,101.925 210.198,101.784 210.425 C 101.644 210.652,101.547 215.195,101.568 220.519 C 101.617 232.860,101.693 232.570,98.373 232.703 C 94.205 232.870,94.616 236.246,94.480 200.715 C 94.355 167.905,94.406 166.171,95.521 165.863 C 97.932 165.199,100.944 165.793,101.276 167.000 M171.600 165.991 C 172.355 166.469,172.739 230.619,171.995 232.009 C 171.636 232.680,171.152 232.800,168.800 232.800 C 166.448 232.800,165.964 232.680,165.605 232.009 C 165.098 231.063,165.214 166.887,165.724 166.100 C 166.108 165.505,170.697 165.421,171.600 165.991 M193.586 166.374 C 194.354 167.808,194.141 232.260,193.367 232.557 C 192.348 232.948,188.815 232.836,187.974 232.386 C 187.170 231.956,186.714 167.746,187.506 166.560 C 188.317 165.346,192.960 165.203,193.586 166.374 M215.885 166.151 C 216.058 166.324,216.290 171.356,216.400 177.333 L 216.600 188.200 217.552 188.335 C 218.075 188.409,219.335 188.139,220.352 187.735 C 221.768 187.172,223.274 187.000,226.800 187.000 C 257.002 187.000,260.745 228.447,230.989 233.390 C 225.505 234.301,215.513 233.344,211.800 231.553 L 209.800 230.588 209.698 198.872 C 209.625 176.384,209.723 166.917,210.035 166.334 C 210.489 165.487,215.075 165.343,215.885 166.151 M288.865 186.583 C 306.903 190.165,314.172 215.175,300.785 227.600 C 299.114 229.151,296.479 231.200,296.155 231.200 C 295.994 231.200,295.579 231.451,295.231 231.757 C 294.884 232.063,293.340 232.828,291.800 233.457 C 286.220 235.735,275.013 234.793,271.569 231.757 C 271.221 231.451,270.806 231.200,270.645 231.200 C 268.939 231.200,262.271 223.658,261.398 220.741 C 261.243 220.224,260.869 219.407,260.566 218.926 C 258.942 216.348,258.833 205.317,260.401 202.308 C 260.840 201.465,261.203 200.556,261.207 200.288 C 261.221 199.368,263.939 195.537,266.436 192.916 C 271.911 187.172,280.136 184.850,288.865 186.583 M148.974 188.390 L 150.000 188.780 150.000 210.547 C 150.000 235.063,150.338 232.805,146.667 232.794 C 143.121 232.783,143.414 234.697,143.284 210.715 L 143.169 189.400 144.029 188.700 C 144.977 187.928,147.364 187.778,148.974 188.390 M320.065 188.347 C 320.793 188.520,322.447 190.200,325.306 193.671 C 327.604 196.459,329.735 199.008,330.042 199.335 C 330.349 199.661,331.210 200.665,331.956 201.564 C 333.215 203.081,335.600 203.940,335.600 202.875 C 335.600 202.697,335.999 202.122,336.487 201.599 C 336.975 201.075,339.603 197.936,342.327 194.623 C 347.712 188.074,347.635 188.126,352.051 188.047 C 356.536 187.967,356.486 188.174,350.168 195.884 C 347.141 199.578,344.470 202.780,344.232 203.000 C 343.995 203.220,343.262 204.120,342.605 205.000 C 341.948 205.880,340.916 207.119,340.311 207.753 C 338.789 209.349,339.110 210.266,342.689 214.546 C 344.320 216.496,345.867 218.358,346.127 218.684 C 346.387 219.009,346.968 219.663,347.418 220.138 C 347.868 220.612,350.279 223.493,352.776 226.540 C 357.975 232.884,357.975 232.785,352.778 232.794 L 349.356 232.800 347.294 230.625 C 346.160 229.428,344.621 227.648,343.874 226.669 C 342.107 224.355,341.573 223.706,340.577 222.662 C 340.124 222.188,338.709 220.495,337.432 218.900 C 334.170 214.826,334.449 214.708,327.595 223.076 C 318.919 233.670,319.986 232.800,315.676 232.800 C 311.244 232.800,310.778 231.839,313.837 229.005 C 315.684 227.293,329.200 210.253,329.200 209.636 C 329.200 209.203,328.644 208.253,327.965 207.525 C 327.286 206.796,326.252 205.570,325.668 204.800 C 325.083 204.030,324.494 203.310,324.359 203.200 C 324.224 203.090,321.902 200.300,319.199 197.000 C 316.495 193.700,313.949 190.678,313.541 190.284 C 311.603 188.414,315.486 187.261,320.065 188.347 M278.951 193.436 C 268.740 195.659,262.921 208.808,267.887 218.434 C 276.361 234.856,300.678 228.736,300.573 210.208 C 300.505 198.264,290.922 190.831,278.951 193.436 M224.800 193.870 C 222.559 194.153,218.279 195.968,217.300 197.050 C 216.408 198.036,216.400 198.149,216.400 210.372 C 216.400 224.756,216.431 225.027,218.147 225.554 C 226.719 228.191,234.964 226.742,240.100 221.697 C 241.145 220.670,242.000 219.657,242.000 219.447 C 242.000 219.236,242.271 218.764,242.602 218.398 C 245.306 215.410,245.140 206.063,242.309 201.914 C 240.231 198.869,236.529 195.600,235.158 195.600 C 234.937 195.600,234.001 195.258,233.078 194.839 C 231.330 194.047,227.213 193.565,224.800 193.870 "
            fill="#3b3bfc" fill-rule="evenodd" id="path0" stroke="none"></path>
        <path
            d="M59.600 163.842 C 57.406 164.244,52.940 165.774,51.938 166.466 C 51.354 166.870,50.715 167.200,50.517 167.200 C 49.835 167.200,44.797 172.874,44.537 173.935 C 44.394 174.521,43.945 175.627,43.539 176.394 C 40.104 182.876,45.967 195.058,53.650 197.405 C 54.173 197.564,54.870 197.927,55.200 198.210 C 55.530 198.494,56.550 198.925,57.467 199.169 C 58.383 199.413,59.643 199.879,60.267 200.204 C 60.890 200.529,61.701 200.796,62.070 200.798 C 64.324 200.806,71.509 204.479,74.149 206.972 C 77.628 210.259,78.408 213.936,76.644 218.745 C 75.605 221.576,70.103 226.009,67.644 225.997 C 67.290 225.995,65.821 226.295,64.379 226.665 C 59.102 228.017,51.070 224.937,46.118 219.661 L 45.235 218.721 43.018 220.819 C 40.553 223.150,40.080 224.786,41.630 225.616 C 42.087 225.861,42.762 226.324,43.130 226.645 C 52.470 234.794,66.964 236.063,76.577 229.574 C 85.304 223.683,87.074 210.800,80.255 202.800 C 78.235 200.430,70.556 195.600,68.809 195.600 C 68.566 195.600,67.700 195.264,66.884 194.854 C 66.068 194.444,64.701 193.981,63.846 193.826 C 62.991 193.670,61.644 193.196,60.852 192.772 C 60.060 192.347,59.171 192.000,58.877 192.000 C 58.226 192.000,55.081 190.211,53.286 188.819 C 49.666 186.011,48.618 180.487,51.003 176.778 C 52.138 175.013,55.120 172.400,55.999 172.400 C 56.237 172.400,57.138 172.040,58.000 171.600 C 60.168 170.494,65.510 170.494,67.800 171.600 C 68.680 172.025,69.561 172.379,69.759 172.386 C 70.095 172.399,72.056 173.675,75.800 176.316 L 77.400 177.444 79.532 175.317 C 82.184 172.669,82.069 172.061,78.400 169.351 C 72.569 165.045,65.053 162.842,59.600 163.842 M144.481 165.235 C 142.931 165.702,140.800 168.725,140.800 170.455 C 140.800 174.646,146.224 177.491,149.545 175.041 C 155.038 170.988,151.045 163.256,144.481 165.235 M95.521 165.863 C 94.406 166.171,94.355 167.905,94.480 200.715 C 94.616 236.246,94.205 232.870,98.373 232.703 C 101.693 232.570,101.617 232.860,101.568 220.519 C 101.547 215.195,101.644 210.652,101.784 210.425 C 101.925 210.198,107.156 215.146,113.410 221.420 L 124.780 232.828 128.857 232.714 C 131.441 232.642,132.990 232.434,133.085 232.148 C 133.167 231.899,128.468 226.899,122.641 221.038 C 116.815 215.176,111.927 210.000,111.780 209.537 C 111.555 208.830,113.081 207.125,121.245 198.955 C 132.401 187.792,132.218 188.200,126.063 188.200 L 122.170 188.200 112.135 198.343 C 106.046 204.497,101.991 208.309,101.822 208.035 C 101.669 207.788,101.558 198.723,101.575 187.892 C 101.612 164.719,101.761 165.821,98.573 165.738 C 97.268 165.704,95.894 165.760,95.521 165.863 M165.724 166.100 C 165.214 166.887,165.098 231.063,165.605 232.009 C 165.964 232.680,166.448 232.800,168.800 232.800 C 171.152 232.800,171.636 232.680,171.995 232.009 C 172.739 230.619,172.355 166.469,171.600 165.991 C 170.697 165.421,166.108 165.505,165.724 166.100 M188.400 165.892 C 188.070 166.017,187.668 166.318,187.506 166.560 C 186.714 167.746,187.170 231.956,187.974 232.386 C 188.815 232.836,192.348 232.948,193.367 232.557 C 194.141 232.260,194.354 167.808,193.586 166.374 C 193.170 165.597,189.958 165.298,188.400 165.892 M210.035 166.334 C 209.723 166.917,209.625 176.384,209.698 198.872 L 209.800 230.588 211.800 231.553 C 215.513 233.344,225.505 234.301,230.989 233.390 C 260.745 228.447,257.002 187.000,226.800 187.000 C 223.274 187.000,221.768 187.172,220.352 187.735 C 219.335 188.139,218.075 188.409,217.552 188.335 L 216.600 188.200 216.400 177.333 C 216.290 171.356,216.058 166.324,215.885 166.151 C 215.075 165.343,210.489 165.487,210.035 166.334 M277.800 186.554 C 272.825 187.540,267.697 190.879,264.209 195.405 C 262.848 197.171,261.214 199.829,261.207 200.288 C 261.203 200.556,260.840 201.465,260.401 202.308 C 258.833 205.317,258.942 216.348,260.566 218.926 C 260.869 219.407,261.243 220.224,261.398 220.741 C 262.271 223.658,268.939 231.200,270.645 231.200 C 270.806 231.200,271.221 231.451,271.569 231.757 C 271.916 232.063,273.460 232.828,275.000 233.457 C 280.580 235.735,291.787 234.793,295.231 231.757 C 295.579 231.451,295.994 231.200,296.155 231.200 C 296.479 231.200,299.114 229.151,300.785 227.600 C 309.788 219.244,309.884 202.587,300.981 193.469 C 294.846 187.185,286.771 184.776,277.800 186.554 M144.029 188.700 L 143.169 189.400 143.284 210.715 C 143.414 234.697,143.121 232.783,146.667 232.794 C 150.338 232.805,150.000 235.063,150.000 210.547 L 150.000 188.780 148.974 188.390 C 147.364 187.778,144.977 187.928,144.029 188.700 M313.280 188.480 C 312.628 189.132,312.674 189.447,313.541 190.284 C 313.949 190.678,316.495 193.700,319.199 197.000 C 321.902 200.300,324.224 203.090,324.359 203.200 C 324.494 203.310,325.083 204.030,325.668 204.800 C 326.252 205.570,327.286 206.796,327.965 207.525 C 328.644 208.253,329.200 209.203,329.200 209.636 C 329.200 210.253,315.684 227.293,313.837 229.005 C 310.778 231.839,311.244 232.800,315.676 232.800 C 319.986 232.800,318.919 233.670,327.595 223.076 C 334.449 214.708,334.170 214.826,337.432 218.900 C 338.709 220.495,340.124 222.188,340.577 222.662 C 341.573 223.706,342.107 224.355,343.874 226.669 C 344.621 227.648,346.160 229.428,347.294 230.625 L 349.356 232.800 352.778 232.794 C 357.975 232.785,357.975 232.884,352.776 226.540 C 350.279 223.493,347.868 220.612,347.418 220.138 C 346.968 219.663,346.387 219.009,346.127 218.684 C 345.867 218.358,344.320 216.496,342.689 214.546 C 339.110 210.266,338.789 209.349,340.311 207.753 C 340.916 207.119,341.948 205.880,342.605 205.000 C 343.262 204.120,343.995 203.220,344.232 203.000 C 344.470 202.780,347.141 199.578,350.168 195.884 C 356.486 188.174,356.536 187.967,352.051 188.047 C 347.635 188.126,347.712 188.074,342.327 194.623 C 339.603 197.936,336.975 201.075,336.487 201.599 C 335.999 202.122,335.600 202.697,335.600 202.875 C 335.600 203.940,333.215 203.081,331.956 201.564 C 331.210 200.665,330.349 199.661,330.042 199.335 C 329.735 199.008,327.604 196.459,325.306 193.671 C 322.447 190.200,320.793 188.520,320.065 188.347 C 318.147 187.892,313.782 187.978,313.280 188.480 M287.768 193.407 C 300.776 196.424,305.240 213.204,295.603 222.857 C 285.664 232.813,268.288 227.157,266.366 213.339 C 264.558 200.338,275.143 190.479,287.768 193.407 M233.078 194.839 C 234.001 195.258,234.937 195.600,235.158 195.600 C 236.529 195.600,240.231 198.869,242.309 201.914 C 245.140 206.063,245.306 215.410,242.602 218.398 C 242.271 218.764,242.000 219.236,242.000 219.447 C 242.000 219.657,241.145 220.670,240.100 221.697 C 234.964 226.742,226.719 228.191,218.147 225.554 C 216.431 225.027,216.400 224.756,216.400 210.372 C 216.400 196.061,216.178 196.836,220.800 195.051 C 224.986 193.434,229.796 193.351,233.078 194.839 "
            fill="#eeeefc" fill-rule="evenodd" id="path1" stroke="none"></path>
    </g>
</svg>